<?xml version="1.0" standalone="no"?>
<!DOCTYPE svg PUBLIC "-//W3C//DTD SVG 20010904//EN"
 "http://www.w3.org/TR/2001/REC-SVG-20010904/DTD/svg10.dtd">
<svg version="1.0" xmlns="http://www.w3.org/2000/svg"
 width="330.000000pt" height="330.000000pt" viewBox="0 0 330.000000 330.000000"
 preserveAspectRatio="xMidYMid meet">
<metadata>
Created by potrace 1.11, written by Peter Selinger 2001-2013
</metadata>
<g transform="translate(0.000000,330.000000) scale(0.100000,-0.100000)"
fill="#000000" stroke="none">
<path d="M0 1650 l0 -1650 1650 0 1650 0 0 1650 0 1650 -1650 0 -1650 0 0
-1650z m1373 675 c45 -21 114 -91 140 -140 29 -57 35 -167 12 -236 -24 -72
-110 -159 -179 -182 -105 -36 -214 -14 -296 60 -75 67 -104 129 -104 223 -1
82 19 135 73 200 78 95 240 130 354 75z m805 -1 c224 -111 230 -418 10 -540
-47 -26 -63 -29 -138 -29 -76 0 -91 3 -139 30 -107 59 -161 151 -161 274 0
113 72 222 180 270 69 31 180 29 248 -5z m-783 -785 c179 -25 354 -92 461
-177 81 -64 94 -100 94 -270 l0 -142 -705 -2 -705 -3 0 148 c0 127 3 153 20
186 28 56 91 106 205 162 187 92 416 128 630 98z m831 -4 c188 -32 352 -99
444 -182 79 -71 90 -101 90 -265 l0 -138 -304 0 -304 0 -4 173 c-3 170 -3 173
-35 241 -23 47 -52 87 -94 127 l-61 59 90 0 c49 0 129 -7 178 -15z"/>
</g>
</svg>
